<?xml version="1.0" standalone="no"?><svg xmlns="http://www.w3.org/2000/svg" viewBox="0 0 1440 320"><path fill="#f3f4f5" fill-opacity="1" d="M0,96L18.5,85.3C36.9,75,74,53,111,80C147.7,107,185,181,222,192C258.5,203,295,149,332,128C369.2,107,406,117,443,133.3C480,149,517,171,554,170.7C590.8,171,628,149,665,117.3C701.5,85,738,43,775,64C812.3,85,849,171,886,213.3C923.1,256,960,256,997,250.7C1033.8,245,1071,235,1108,197.3C1144.6,160,1182,96,1218,69.3C1255.4,43,1292,53,1329,74.7C1366.2,96,1403,128,1422,144L1440,160L1440,320L1421.5,320C1403.1,320,1366,320,1329,320C1292.3,320,1255,320,1218,320C1181.5,320,1145,320,1108,320C1070.8,320,1034,320,997,320C960,320,923,320,886,320C849.2,320,812,320,775,320C738.5,320,702,320,665,320C627.7,320,591,320,554,320C516.9,320,480,320,443,320C406.2,320,369,320,332,320C295.4,320,258,320,222,320C184.6,320,148,320,111,320C73.8,320,37,320,18,320L0,320Z"></path></svg>